<?xml version="1.0" encoding="UTF-8"?>
<svg id="Capa_2" data-name="Capa 2" xmlns="http://www.w3.org/2000/svg" xmlns:xlink="http://www.w3.org/1999/xlink" viewBox="0 0 1000 241.38">
  <defs>
    <style>
      .cls-1 {
        fill: #1f2937;
      }

      .cls-2 {
        fill: url(#Nueva_muestra_de_degradado_1);
      }
    </style>
    <linearGradient id="Nueva_muestra_de_degradado_1" data-name="Nueva muestra de degradado 1" x1="64.12" y1="218.67" x2="196.81" y2="-11.16" gradientUnits="userSpaceOnUse">
      <stop offset="0" stop-color="#2553eb"/>
      <stop offset="1" stop-color="#06b6d4"/>
    </linearGradient>
  </defs>
  <g id="Capa_1-2" data-name="Capa 1">
    <g>
      <g>
        <path class="cls-1" d="m340.41,186c-9.06,0-17.5-1.64-25.31-4.93-7.81-3.28-14.67-7.87-20.55-13.76-5.89-5.89-10.48-12.8-13.76-20.72-3.28-7.93-4.92-16.59-4.92-25.99s1.59-18.09,4.76-26.07c3.17-7.98,7.65-14.89,13.42-20.72,5.78-5.83,12.54-10.36,20.3-13.59,7.76-3.23,16.22-4.84,25.4-4.84s17.41,1.53,24.71,4.59c7.3,3.06,13.5,7.13,18.6,12.23,5.1,5.1,8.72,10.76,10.87,16.99l-23.27,11.21c-2.15-6.12-5.92-11.18-11.3-15.2-5.38-4.02-11.92-6.03-19.62-6.03s-14.05,1.76-19.71,5.27c-5.66,3.51-10.05,8.35-13.16,14.52-3.12,6.17-4.67,13.39-4.67,21.66s1.64,15.52,4.93,21.74c3.28,6.23,7.78,11.1,13.5,14.61,5.72,3.51,12.31,5.27,19.79,5.27,5.78,0,11.18-1.1,16.22-3.31,5.04-2.21,9.11-5.41,12.23-9.6,3.11-4.19,4.67-9.23,4.67-15.12v-10.53l12.06,10.19h-45.86v-22.08h60.13v13.42c0,10.31-1.7,19.28-5.1,26.92-3.4,7.64-7.96,13.99-13.67,19.02-5.72,5.04-12.12,8.78-19.19,11.21-7.08,2.43-14.24,3.65-21.49,3.65Z"/>
        <path class="cls-1" d="m413.48,82.9v-25.48h25.48v25.48h-25.48Zm0,101.07v-92.75h25.48v92.75h-25.48Z"/>
        <path class="cls-1" d="m498.7,184.98c-11.21,0-19.9-3.03-26.07-9.09-6.17-6.06-9.26-14.52-9.26-25.39v-37.2h-15.63v-22.08h.85c4.76,0,8.41-1.19,10.96-3.57,2.55-2.38,3.82-5.94,3.82-10.7v-6.79h25.48v21.06h21.74v22.08h-21.74v35.5c0,3.17.56,5.8,1.7,7.9,1.13,2.1,2.89,3.65,5.27,4.67,2.38,1.02,5.32,1.53,8.83,1.53.79,0,1.7-.06,2.72-.17,1.02-.11,2.09-.23,3.23-.34v21.57c-1.7.23-3.62.45-5.78.68-2.15.23-4.19.34-6.11.34Z"/>
        <path class="cls-1" d="m526.34,183.96V57.42h41.28c13.7,0,25.59,2.72,35.67,8.15,10.08,5.44,17.89,12.91,23.44,22.42,5.55,9.51,8.32,20.38,8.32,32.61s-2.78,23.13-8.32,32.7c-5.55,9.57-13.36,17.07-23.44,22.51-10.08,5.44-21.97,8.15-35.67,8.15h-41.28Zm26.33-22.93h15.63c8.26,0,15.4-1.67,21.4-5.01,6-3.34,10.67-8.04,14.01-14.1,3.34-6.06,5.01-13.16,5.01-21.32s-1.67-15.4-5.01-21.4c-3.34-6-8.01-10.64-14.01-13.93-6.01-3.28-13.14-4.93-21.4-4.93h-15.63v80.69Z"/>
        <path class="cls-1" d="m692.6,186c-9.17,0-17.53-2.09-25.05-6.28-7.53-4.19-13.53-9.94-18.01-17.24-4.47-7.3-6.71-15.6-6.71-24.88s2.24-17.72,6.71-24.97c4.47-7.25,10.47-12.97,18.01-17.16,7.53-4.19,15.88-6.28,25.05-6.28s17.5,2.1,24.97,6.28c7.47,4.19,13.45,9.91,17.92,17.16,4.47,7.25,6.71,15.57,6.71,24.97s-2.24,17.58-6.71,24.88c-4.48,7.3-10.45,13.05-17.92,17.24-7.47,4.19-15.8,6.28-24.97,6.28Zm0-22.93c4.64,0,8.69-1.07,12.15-3.23,3.45-2.15,6.17-5.15,8.15-9,1.98-3.85,2.97-8.27,2.97-13.25s-.99-9.37-2.97-13.16c-1.98-3.79-4.7-6.79-8.15-9-3.46-2.21-7.5-3.31-12.15-3.31s-8.72,1.1-12.23,3.31c-3.51,2.21-6.26,5.21-8.24,9-1.98,3.8-2.97,8.18-2.97,13.16s.99,9.4,2.97,13.25c1.98,3.85,4.73,6.85,8.24,9,3.51,2.15,7.58,3.23,12.23,3.23Z"/>
        <path class="cls-1" d="m798.39,186c-9.29,0-17.64-2.12-25.05-6.37-7.42-4.25-13.31-10.05-17.66-17.41-4.36-7.36-6.54-15.63-6.54-24.8s2.15-17.41,6.45-24.72c4.3-7.3,10.19-13.05,17.66-17.24,7.47-4.19,15.85-6.28,25.14-6.28,6.91,0,13.31,1.19,19.2,3.57,5.89,2.38,10.93,5.69,15.12,9.94,4.19,4.25,7.19,9.26,9,15.03l-22.08,9.51c-1.59-4.64-4.28-8.32-8.07-11.04-3.8-2.72-8.18-4.08-13.16-4.08-4.42,0-8.35,1.08-11.81,3.23-3.46,2.15-6.17,5.15-8.15,9-1.98,3.85-2.97,8.27-2.97,13.25s.99,9.4,2.97,13.25c1.98,3.85,4.7,6.85,8.15,9,3.45,2.15,7.39,3.23,11.81,3.23,5.1,0,9.51-1.36,13.25-4.08,3.74-2.72,6.4-6.4,7.99-11.04l22.08,9.68c-1.7,5.44-4.65,10.31-8.83,14.61-4.19,4.31-9.23,7.67-15.12,10.11-5.89,2.43-12.35,3.65-19.37,3.65Z"/>
        <path class="cls-1" d="m843.67,183.96l42.81-126.55h34.99l42.81,126.55h-28.71l-8.49-25.82h-46.37l-8.49,25.82h-28.54Zm44.33-48.75h31.77l-19.36-59.79h7.13l-19.54,59.79Z"/>
        <path class="cls-1" d="m973.67,183.96V57.42h26.33v126.55h-26.33Z"/>
      </g>
      <g>
        <rect class="cls-2" x="137.93" y="137.93" width="34.48" height="34.48"/>
        <path class="cls-2" d="m68.97,68.97v34.48h137.93v103.45h-103.45v-68.97H34.48V34.48h206.9c0-19.04-15.44-34.48-34.48-34.48H34.48C15.44,0,0,15.44,0,34.48v103.45l103.45,103.45h103.45c19.04,0,34.48-15.44,34.48-34.48V68.97H68.97Z"/>
      </g>
    </g>
  </g>
</svg>